<svg width="25" height="22" viewBox="0 0 25 22" fill="none" xmlns="http://www.w3.org/2000/svg">
<path fill-rule="evenodd" clip-rule="evenodd" d="M6.31193 12.5713L6.31193 12.4391L23.1874 12.5713L24.5 12.5823L24.5 12.5713L24.5 8.63796L24.5 8.61594L22.0568 8.63796L6.31193 8.77019L6.31193 8.63796L6.31193 8.1642C11.1282 8.13115 13.9856 -4.596e-07 13.9856 -4.596e-07L9.73459 0.0771251C9.73459 0.0771251 6.83691 8.14438 0.499998 8.3405L0.499998 8.63796L0.499998 12.5713L0.499998 12.8688C6.81204 13.1024 9.73459 21.1322 9.73459 21.1322L13.9856 21.2093C13.9856 21.2093 11.1282 13.0782 6.31193 13.0451L6.31193 12.5713Z" fill="white"/>
</svg>
