<svg width="33" height="33" viewBox="0 0 33 33" fill="none" xmlns="http://www.w3.org/2000/svg">
<path fill-rule="evenodd" clip-rule="evenodd" d="M19.9221 11.2664L20.0071 11.3677L6.99476 22.1137L5.98217 22.949L5.98924 22.9574L8.51757 25.9706L8.53173 25.9875L10.3892 24.4001L22.3654 14.1782L22.4504 14.2795L22.755 14.6424C19.0867 17.7636 22.1245 25.8291 22.1245 25.8291L25.3313 23.0375C25.3313 23.0375 22.3655 14.9951 27.0938 10.7716L26.9026 10.5437L24.3743 7.53054L24.1831 7.30266C19.1977 11.181 11.7974 6.90844 11.7974 6.90844L8.49138 9.58184C8.49138 9.58184 15.9069 13.974 19.6176 10.9035L19.9221 11.2664Z" fill="#C60C30"/>
</svg>
