<svg width="24" height="22" viewBox="0 0 24 22" fill="none" xmlns="http://www.w3.org/2000/svg">
<path fill-rule="evenodd" clip-rule="evenodd" d="M18.1881 8.95999L18.1881 9.09715L1.31261 8.95999L1.55637e-07 8.94858L1.55501e-07 8.95999L1.06847e-07 13.04L1.06574e-07 13.0629L2.44319 13.04L18.1881 12.9029L18.1881 13.04L18.1881 13.5314C13.3718 13.5657 10.5144 22 10.5144 22L14.7654 21.92C14.7654 21.92 17.6631 13.552 24 13.3486L24 13.04L24 8.95999L24 8.65144C17.688 8.40915 14.7654 0.080002 14.7654 0.080002L10.5144 1.25383e-07C10.5144 1.25383e-07 13.3718 8.43429 18.1881 8.46857L18.1881 8.95999Z" fill="white"/>
</svg>
